<svg xmlns="http://www.w3.org/2000/svg" width="20" height="20" fill="none" viewBox="0 0 20 20"><path fill="#7B3FFF" fill-rule="evenodd" d="M16.7041 4.15303C16.7826 4.21266 16.8486 4.28719 16.8984 4.37236C16.9481 4.45753 16.9805 4.55166 16.9938 4.64938C17.007 4.74709 17.0009 4.84646 16.9758 4.94181C16.9506 5.03716 16.9069 5.1266 16.8471 5.20503L8.84709 15.705C8.7822 15.7901 8.69986 15.8603 8.60561 15.9109C8.51136 15.9615 8.40737 15.9913 8.30062 15.9984C8.19388 16.0056 8.08685 15.9897 7.98672 15.9521C7.88659 15.9144 7.79568 15.8557 7.72009 15.78L3.22009 11.28C3.08761 11.1379 3.01549 10.9498 3.01892 10.7555C3.02234 10.5612 3.10106 10.3758 3.23847 10.2384C3.37588 10.101 3.56127 10.0223 3.75557 10.0189C3.94987 10.0154 4.13792 10.0876 4.28009 10.22L8.17409 14.113L15.6541 4.29603C15.7745 4.13799 15.9527 4.03416 16.1495 4.00735C16.3464 3.98054 16.5458 4.03294 16.7041 4.15303Z" clip-rule="evenodd"/></svg>