<svg width="20" height="20" viewBox="0 0 20 20" fill="none" xmlns="http://www.w3.org/2000/svg">
<path fill-rule="evenodd" clip-rule="evenodd" d="M6.25171 5H12.1917C12.9369 5.0011 13.6512 5.29791 14.1778 5.82523C14.7043 6.35256 15 7.0673 15 7.8125V15.625C15.6631 15.625 16.299 15.3616 16.7678 14.8928C17.2367 14.4239 17.5 13.788 17.5 13.125V5.09C17.5 3.83583 16.5625 2.7475 15.28 2.64C15.0932 2.62482 14.9062 2.61093 14.7192 2.59833C14.5083 2.19191 14.1897 1.85122 13.7984 1.61345C13.4071 1.37568 12.958 1.24996 12.5 1.25H11.25C10.7921 1.24996 10.343 1.37568 9.95167 1.61345C9.56034 1.85122 9.24182 2.19191 9.03088 2.59833C8.84338 2.61083 8.65588 2.625 8.47004 2.64C7.21838 2.74583 6.29504 3.785 6.25171 5ZM11.25 2.5C10.9185 2.5 10.6006 2.6317 10.3662 2.86612C10.1317 3.10054 10 3.41848 10 3.75H13.75C13.75 3.41848 13.6183 3.10054 13.3839 2.86612C13.1495 2.6317 12.8316 2.5 12.5 2.5H11.25Z" fill="#A5A9B8"/>
<path fill-rule="evenodd" clip-rule="evenodd" d="M2.5 7.8125C2.5 6.94917 3.2 6.25 4.0625 6.25H12.1875C13.0508 6.25 13.75 6.95 13.75 7.8125V17.1875C13.75 18.05 13.05 18.75 12.1875 18.75H4.0625C3.6481 18.75 3.25067 18.5854 2.95765 18.2924C2.66462 17.9993 2.5 17.6019 2.5 17.1875V7.8125ZM5 10C5 9.83424 5.06585 9.67527 5.18306 9.55806C5.30027 9.44085 5.45924 9.375 5.625 9.375H5.63167C5.79743 9.375 5.9564 9.44085 6.07361 9.55806C6.19082 9.67527 6.25667 9.83424 6.25667 10V10.0067C6.25667 10.1724 6.19082 10.3314 6.07361 10.4486C5.9564 10.5658 5.79743 10.6317 5.63167 10.6317H5.625C5.45924 10.6317 5.30027 10.5658 5.18306 10.4486C5.06585 10.3314 5 10.1724 5 10.0067V10ZM6.875 10C6.875 9.83424 6.94085 9.67527 7.05806 9.55806C7.17527 9.44085 7.33424 9.375 7.5 9.375H10.625C10.7908 9.375 10.9497 9.44085 11.0669 9.55806C11.1842 9.67527 11.25 9.83424 11.25 10C11.25 10.1658 11.1842 10.3247 11.0669 10.4419C10.9497 10.5592 10.7908 10.625 10.625 10.625H7.5C7.33424 10.625 7.17527 10.5592 7.05806 10.4419C6.94085 10.3247 6.875 10.1658 6.875 10ZM5 12.5C5 12.3342 5.06585 12.1753 5.18306 12.0581C5.30027 11.9408 5.45924 11.875 5.625 11.875H5.63167C5.79743 11.875 5.9564 11.9408 6.07361 12.0581C6.19082 12.1753 6.25667 12.3342 6.25667 12.5V12.5067C6.25667 12.6724 6.19082 12.8314 6.07361 12.9486C5.9564 13.0658 5.79743 13.1317 5.63167 13.1317H5.625C5.45924 13.1317 5.30027 13.0658 5.18306 12.9486C5.06585 12.8314 5 12.6724 5 12.5067V12.5ZM6.875 12.5C6.875 12.3342 6.94085 12.1753 7.05806 12.0581C7.17527 11.9408 7.33424 11.875 7.5 11.875H10.625C10.7908 11.875 10.9497 11.9408 11.0669 12.0581C11.1842 12.1753 11.25 12.3342 11.25 12.5C11.25 12.6658 11.1842 12.8247 11.0669 12.9419C10.9497 13.0592 10.7908 13.125 10.625 13.125H7.5C7.33424 13.125 7.17527 13.0592 7.05806 12.9419C6.94085 12.8247 6.875 12.6658 6.875 12.5ZM5 15C5 14.8342 5.06585 14.6753 5.18306 14.5581C5.30027 14.4408 5.45924 14.375 5.625 14.375H5.63167C5.79743 14.375 5.9564 14.4408 6.07361 14.5581C6.19082 14.6753 6.25667 14.8342 6.25667 15V15.0067C6.25667 15.1724 6.19082 15.3314 6.07361 15.4486C5.9564 15.5658 5.79743 15.6317 5.63167 15.6317H5.625C5.45924 15.6317 5.30027 15.5658 5.18306 15.4486C5.06585 15.3314 5 15.1724 5 15.0067V15ZM6.875 15C6.875 14.8342 6.94085 14.6753 7.05806 14.5581C7.17527 14.4408 7.33424 14.375 7.5 14.375H10.625C10.7908 14.375 10.9497 14.4408 11.0669 14.5581C11.1842 14.6753 11.25 14.8342 11.25 15C11.25 15.1658 11.1842 15.3247 11.0669 15.4419C10.9497 15.5592 10.7908 15.625 10.625 15.625H7.5C7.33424 15.625 7.17527 15.5592 7.05806 15.4419C6.94085 15.3247 6.875 15.1658 6.875 15Z" fill="#A5A9B8"/>
</svg>
