<svg width="20" height="20" viewBox="0 0 20 20" fill="none" xmlns="http://www.w3.org/2000/svg">
<path fill-rule="evenodd" clip-rule="evenodd" d="M2 6.75C2 6.55109 2.07902 6.36032 2.21967 6.21967C2.36032 6.07902 2.55109 6 2.75 6H17.25C17.4489 6 17.6397 6.07902 17.7803 6.21967C17.921 6.36032 18 6.55109 18 6.75C18 6.94891 17.921 7.13968 17.7803 7.28033C17.6397 7.42098 17.4489 7.5 17.25 7.5H2.75C2.55109 7.5 2.36032 7.42098 2.21967 7.28033C2.07902 7.13968 2 6.94891 2 6.75ZM2 13.25C2 13.0511 2.07902 12.8603 2.21967 12.7197C2.36032 12.579 2.55109 12.5 2.75 12.5H17.25C17.4489 12.5 17.6397 12.579 17.7803 12.7197C17.921 12.8603 18 13.0511 18 13.25C18 13.4489 17.921 13.6397 17.7803 13.7803C17.6397 13.921 17.4489 14 17.25 14H2.75C2.55109 14 2.36032 13.921 2.21967 13.7803C2.07902 13.6397 2 13.4489 2 13.25Z" fill="#09090A"/>
</svg>
