<svg width="20" height="20" viewBox="0 0 20 20" fill="none" xmlns="http://www.w3.org/2000/svg">
<path fill-rule="evenodd" clip-rule="evenodd" d="M4.25 5.5C4.05109 5.5 3.86032 5.57902 3.71967 5.71967C3.57902 5.86032 3.5 6.05109 3.5 6.25V14.75C3.5 15.164 3.836 15.5 4.25 15.5H12.75C12.9489 15.5 13.1397 15.421 13.2803 15.2803C13.421 15.1397 13.5 14.9489 13.5 14.75V10.75C13.5 10.5511 13.579 10.3603 13.7197 10.2197C13.8603 10.079 14.0511 10 14.25 10C14.4489 10 14.6397 10.079 14.7803 10.2197C14.921 10.3603 15 10.5511 15 10.75V14.75C15 15.3467 14.7629 15.919 14.341 16.341C13.919 16.7629 13.3467 17 12.75 17H4.25C3.65326 17 3.08097 16.7629 2.65901 16.341C2.23705 15.919 2 15.3467 2 14.75V6.25C2 5.65326 2.23705 5.08097 2.65901 4.65901C3.08097 4.23705 3.65326 4 4.25 4H9.25C9.44891 4 9.63968 4.07902 9.78033 4.21967C9.92098 4.36032 10 4.55109 10 4.75C10 4.94891 9.92098 5.13968 9.78033 5.28033C9.63968 5.42098 9.44891 5.5 9.25 5.5H4.25Z" fill="#A5A9B8"/>
<path fill-rule="evenodd" clip-rule="evenodd" d="M6.19392 12.753C6.26001 12.8261 6.33986 12.8855 6.42892 12.9278C6.51797 12.97 6.61449 12.9943 6.71293 12.9992C6.81138 13.0041 6.90983 12.9896 7.00266 12.9565C7.09549 12.9233 7.18087 12.8722 7.25392 12.806L16.4999 4.44V7.25C16.4999 7.44891 16.5789 7.63968 16.7196 7.78033C16.8602 7.92098 17.051 8 17.2499 8C17.4488 8 17.6396 7.92098 17.7802 7.78033C17.9209 7.63968 17.9999 7.44891 17.9999 7.25V2.75C17.9999 2.55109 17.9209 2.36032 17.7802 2.21967C17.6396 2.07902 17.4488 2 17.2499 2H12.7499C12.551 2 12.3602 2.07902 12.2196 2.21967C12.0789 2.36032 11.9999 2.55109 11.9999 2.75C11.9999 2.94891 12.0789 3.13968 12.2196 3.28033C12.3602 3.42098 12.551 3.5 12.7499 3.5H15.3029L6.24692 11.694C6.17378 11.7601 6.11439 11.8399 6.07214 11.929C6.02989 12.0181 6.00561 12.1146 6.00069 12.213C5.99577 12.3115 6.0103 12.4099 6.04346 12.5027C6.07661 12.5956 6.12774 12.6799 6.19392 12.753Z" fill="#A5A9B8"/>
</svg>
