<svg width="90" height="24" viewBox="0 0 90 24" fill="none" xmlns="http://www.w3.org/2000/svg">
<path fill-rule="evenodd" clip-rule="evenodd" d="M9.99009 0C7.34055 0 4.79953 1.05252 2.92603 2.92603C1.05252 4.79954 0 7.34055 0 9.99009C0 12.6396 1.05252 15.1806 2.92603 17.0542C4.79953 18.9277 7.34055 19.9802 9.99009 19.9802C12.078 19.9802 14.0985 19.3266 15.7781 18.1327L21.6454 24L24 21.6454L18.1327 15.7781C19.3266 14.0985 19.9802 12.078 19.9802 9.99009C19.9802 7.34055 18.9277 4.79953 17.0541 2.92603C15.1806 1.05252 12.6396 0 9.99009 0ZM5.28064 5.28064C6.52966 4.03162 8.2237 3.32993 9.99009 3.32993C11.7565 3.32993 13.4505 4.03162 14.6995 5.28064C15.9486 6.52967 16.6503 8.22371 16.6503 9.99009C16.6503 11.7565 15.9486 13.4505 14.6995 14.6995C13.4505 15.9486 11.7565 16.6503 9.99009 16.6503C8.2237 16.6503 6.52966 15.9486 5.28064 14.6995C4.03162 13.4505 3.32992 11.7565 3.32992 9.99009C3.32992 8.22371 4.03162 6.52967 5.28064 5.28064ZM44.0501 21.8271H46.3294V11.1143H37.668V13.821H43.0814C43.0624 14.6757 42.9295 15.4545 42.6825 16.1573C42.4356 16.8601 42.0652 17.4584 41.5714 17.9523C41.0965 18.4271 40.5077 18.7975 39.8049 19.0634C39.1021 19.3103 38.2949 19.4243 37.3831 19.4053C36.3005 19.4053 35.3603 19.1869 34.5625 18.75C33.7837 18.3131 33.1474 17.7338 32.6536 17.012C32.1597 16.2713 31.7893 15.4355 31.5424 14.5048C31.3145 13.5741 31.2005 12.6244 31.2005 11.6557C31.2005 10.687 31.3145 9.73725 31.5424 8.80653C31.7893 7.87581 32.1597 7.04956 32.6536 6.32778C33.1474 5.58701 33.7837 4.99819 34.5625 4.56132C35.3603 4.12445 36.3005 3.90602 37.3831 3.90602C38.0289 3.90602 38.6463 3.99149 39.2351 4.16244C39.8239 4.33339 40.3557 4.58981 40.8306 4.93171C41.3054 5.2736 41.6948 5.70097 41.9987 6.21382C42.3216 6.70767 42.5306 7.28699 42.6255 7.95179H46.1015C45.9685 6.81214 45.6456 5.80544 45.1328 4.93171C44.6199 4.05797 43.9741 3.33619 43.1954 2.76637C42.4166 2.17754 41.5239 1.74068 40.5172 1.45576C39.5295 1.15186 38.4848 0.999902 37.3831 0.999902C35.8636 0.999902 34.496 1.28482 33.2804 1.85464C32.0837 2.42447 31.0676 3.19374 30.2318 4.16244C29.3961 5.13115 28.7503 6.2613 28.2944 7.55291C27.8575 8.84452 27.6391 10.2121 27.6391 11.6557C27.6391 13.1182 27.8575 14.4953 28.2944 15.7869C28.7503 17.0785 29.3961 18.2087 30.2318 19.1774C31.0676 20.1461 32.0837 20.9154 33.2804 21.4852C34.496 22.036 35.8636 22.3114 37.3831 22.3114C38.6178 22.3114 39.7099 22.1025 40.6596 21.6846C41.6094 21.2667 42.5591 20.5165 43.5088 19.4338L44.0501 21.8271ZM53.4747 1.48425H49.9133V21.8271H53.4747V1.48425ZM57.5581 1.48425H71.6043V4.56132H61.1195V9.8892H70.3222V12.7953H61.1195V21.8271H57.5581V1.48425ZM76.8973 17.0405C76.6314 16.4897 76.4984 15.8249 76.4984 15.0461H72.937C72.956 16.2998 73.1934 17.3919 73.6493 18.3226C74.1051 19.2344 74.7129 19.9846 75.4727 20.5735C76.2325 21.1623 77.1252 21.5991 78.1509 21.8841C79.1766 22.169 80.2688 22.3114 81.4274 22.3114C82.4341 22.3114 83.4218 22.188 84.3905 21.941C85.3592 21.7131 86.2234 21.3427 86.9832 20.8299C87.743 20.317 88.3508 19.6617 88.8067 18.864C89.2815 18.0472 89.5189 17.069 89.5189 15.9294C89.5189 15.3975 89.4335 14.8657 89.2625 14.3339C89.1106 13.802 88.8636 13.3082 88.5217 12.8523C88.1988 12.3774 87.7905 11.9596 87.2966 11.5987C86.8028 11.2378 86.2234 10.9529 85.5586 10.7439C85.2927 10.668 84.8464 10.554 84.2196 10.402C83.6117 10.2311 82.9849 10.0602 82.3391 9.8892C81.6933 9.71825 81.1045 9.5663 80.5727 9.43334C80.0598 9.28139 79.7654 9.19591 79.6894 9.17692C78.9676 8.96798 78.3788 8.66407 77.923 8.2652C77.4861 7.84732 77.2677 7.2775 77.2677 6.55572C77.2677 6.04287 77.3816 5.6155 77.6096 5.2736C77.8565 4.93171 78.1604 4.66579 78.5213 4.47585C78.8822 4.26691 79.2811 4.12445 79.7179 4.04848C80.1548 3.95351 80.5822 3.90602 81 3.90602C82.2347 3.90602 83.2509 4.18144 84.0486 4.73227C84.8464 5.26411 85.2927 6.18533 85.3877 7.49593H88.9491C88.9491 6.43225 88.7402 5.50153 88.3223 4.70378C87.9044 3.88702 87.3346 3.20323 86.6128 2.6524C85.91 2.10157 85.0838 1.69319 84.1341 1.42727C83.2034 1.14236 82.2062 0.999902 81.1425 0.999902C80.2308 0.999902 79.3285 1.12336 78.4358 1.37029C77.5431 1.59822 76.7453 1.95911 76.0425 2.45296C75.3398 2.94681 74.7699 3.57362 74.3331 4.33339C73.9152 5.07416 73.7063 5.9574 73.7063 6.98308C73.7063 7.51492 73.7727 8.03726 73.9057 8.55011C74.0576 9.06295 74.3046 9.54731 74.6465 10.0032C74.9884 10.459 75.4442 10.8769 76.0141 11.2568C76.6029 11.6177 77.3341 11.9121 78.2079 12.14C79.6135 12.5199 80.7911 12.8333 81.7408 13.0802C82.7095 13.3082 83.5548 13.5551 84.2765 13.821C84.6944 13.973 85.0743 14.2389 85.4162 14.6188C85.7771 14.9797 85.9575 15.5495 85.9575 16.3282C85.9575 16.7081 85.8816 17.088 85.7296 17.4679C85.5776 17.8288 85.3307 18.1517 84.9888 18.4366C84.6469 18.7215 84.2006 18.959 83.6497 19.1489C83.0989 19.3198 82.4341 19.4053 81.6553 19.4053C80.9336 19.4053 80.2593 19.3293 79.6324 19.1774C79.0246 19.0064 78.4833 18.75 78.0084 18.4081C77.5336 18.0472 77.1632 17.5914 76.8973 17.0405Z" fill="black"/>
</svg>
