<svg xmlns="http://www.w3.org/2000/svg" width="90" height="24" fill="none" viewBox="0 0 90 24"><path fill="#09090A" fill-rule="evenodd" d="M44.0502 21.8271H46.3295V11.1143H37.6681V13.821H43.0815C43.0625 14.6757 42.9295 15.4545 42.6826 16.1573C42.4357 16.8601 42.0653 17.4584 41.5714 17.9522C41.0966 18.4271 40.5077 18.7975 39.805 19.0634C39.1022 19.3103 38.2949 19.4243 37.3832 19.4053C36.3005 19.4053 35.3603 19.1869 34.5626 18.75C33.7838 18.3131 33.1475 17.7338 32.6536 17.012C32.1598 16.2712 31.7894 15.4355 31.5425 14.5048C31.3145 13.5741 31.2006 12.6243 31.2006 11.6556C31.2006 10.6869 31.3145 9.73722 31.5425 8.80651C31.7894 7.87579 32.1598 7.04954 32.6536 6.32776C33.1475 5.58698 33.7838 4.99816 34.5626 4.5613C35.3603 4.12443 36.3005 3.906 37.3832 3.906C38.029 3.906 38.6463 3.99147 39.2351 4.16242C39.824 4.33337 40.3558 4.58979 40.8306 4.93168C41.3055 5.27358 41.6949 5.70095 41.9988 6.21379C42.3217 6.70764 42.5306 7.28697 42.6256 7.95177H46.1015C45.9686 6.81211 45.6457 5.80542 45.1328 4.93168C44.62 4.05795 43.9742 3.33617 43.1954 2.76634C42.4167 2.17752 41.5239 1.74065 40.5172 1.45574C39.5295 1.15183 38.4849 0.999878 37.3832 0.999878C35.8637 0.999878 34.4961 1.28479 33.2804 1.85462C32.0838 2.42445 31.0676 3.19371 30.2319 4.16242C29.3961 5.13112 28.7503 6.26128 28.2945 7.55289C27.8576 8.8445 27.6392 10.2121 27.6392 11.6556C27.6392 13.1182 27.8576 14.4953 28.2945 15.7869C28.7503 17.0785 29.3961 18.2087 30.2319 19.1774C31.0676 20.1461 32.0838 20.9153 33.2804 21.4852C34.4961 22.036 35.8637 22.3114 37.3832 22.3114C38.6178 22.3114 39.71 22.1025 40.6597 21.6846C41.6094 21.2667 42.5591 20.5165 43.5088 19.4338L44.0502 21.8271ZM53.4748 1.48423H49.9134V21.8271H53.4748V1.48423ZM57.5582 1.48423H71.6044V4.5613H61.1196V9.88918H70.3223V12.7953H61.1196V21.8271H57.5582V1.48423ZM76.8973 17.0405C76.6314 16.4897 76.4985 15.8249 76.4985 15.0461H72.937C72.956 16.2997 73.1935 17.3919 73.6493 18.3226C74.1052 19.2343 74.713 19.9846 75.4728 20.5734C76.2325 21.1623 77.1253 21.5991 78.151 21.884C79.1766 22.1689 80.2688 22.3114 81.4275 22.3114C82.4342 22.3114 83.4219 22.1879 84.3906 21.941C85.3593 21.7131 86.2235 21.3427 86.9833 20.8299C87.743 20.317 88.3509 19.6617 88.8067 18.864C89.2816 18.0472 89.519 17.069 89.519 15.9293C89.519 15.3975 89.4335 14.8657 89.2626 14.3338C89.1106 13.802 88.8637 13.3081 88.5218 12.8523C88.1989 12.3774 87.7905 11.9595 87.2967 11.5987C86.8028 11.2378 86.2235 10.9529 85.5587 10.7439C85.2928 10.6679 84.8464 10.554 84.2196 10.402C83.6118 10.2311 82.985 10.0601 82.3392 9.88918C81.6934 9.71823 81.1046 9.56628 80.5727 9.43332C80.0599 9.28136 79.7655 9.19589 79.6895 9.17689C78.9677 8.96796 78.3789 8.66405 77.923 8.26517C77.4862 7.8473 77.2677 7.27747 77.2677 6.55569C77.2677 6.04285 77.3817 5.61548 77.6096 5.27358C77.8566 4.93168 78.1605 4.66576 78.5213 4.47582C78.8822 4.26689 79.2811 4.12443 79.718 4.04845C80.1548 3.95348 80.5822 3.906 81.0001 3.906C82.2347 3.906 83.2509 4.18141 84.0487 4.73224C84.8464 5.26408 85.2928 6.1853 85.3878 7.4959H88.9492C88.9492 6.43223 88.7402 5.50151 88.3224 4.70375C87.9045 3.887 87.3347 3.20321 86.6129 2.65238C85.9101 2.10154 85.0839 1.69317 84.1341 1.42725C83.2034 1.14233 82.2062 0.999878 81.1426 0.999878C80.2308 0.999878 79.3286 1.12334 78.4359 1.37026C77.5431 1.5982 76.7454 1.95909 76.0426 2.45294C75.3398 2.94679 74.77 3.5736 74.3331 4.33337C73.9153 5.07414 73.7063 5.95737 73.7063 6.98306C73.7063 7.5149 73.7728 8.03724 73.9058 8.55008C74.0577 9.06293 74.3046 9.54728 74.6465 10.0031C74.9884 10.459 75.4443 10.8769 76.0141 11.2568C76.6029 11.6177 77.3342 11.9121 78.2079 12.14C79.6135 12.5199 80.7912 12.8333 81.7409 13.0802C82.7096 13.3081 83.5548 13.5551 84.2766 13.821C84.6945 13.9729 85.0744 14.2389 85.4162 14.6187C85.7771 14.9796 85.9576 15.5495 85.9576 16.3282C85.9576 16.7081 85.8816 17.088 85.7297 17.4679C85.5777 17.8288 85.3308 18.1517 84.9889 18.4366C84.647 18.7215 84.2006 18.9589 83.6498 19.1489C83.099 19.3198 82.4342 19.4053 81.6554 19.4053C80.9336 19.4053 80.2593 19.3293 79.6325 19.1774C79.0247 19.0064 78.4834 18.75 78.0085 18.4081C77.5336 18.0472 77.1633 17.5913 76.8973 17.0405Z" clip-rule="evenodd"/><path fill="#39ACE5" fill-rule="evenodd" d="M21.5547 19.2H16.8455L21.6454 23.9999H21.6456L24.0001 21.6454L21.5547 19.2ZM6.11975 19.2C7.3336 19.7101 8.64798 19.9802 9.9902 19.9802C11.3324 19.9802 12.6468 19.7101 13.8607 19.2H6.11975Z" clip-rule="evenodd"/><path fill="#7B3FFF" fill-rule="evenodd" d="M9.99011 0C7.34057 0 4.79955 1.05252 2.92605 2.92603C2.35763 3.49445 1.86479 4.12431 1.45398 4.8H5.81626C6.99367 3.85308 8.46492 3.32993 9.99011 3.32993C11.5153 3.32993 12.9865 3.85308 14.164 4.8H18.5262C18.1154 4.12431 17.6226 3.49445 17.0542 2.92603C15.1807 1.05252 12.6396 0 9.99011 0Z" clip-rule="evenodd"/><path fill="#FF406E" fill-rule="evenodd" d="M18.5263 4.79999H14.164C14.3502 4.94974 14.5291 5.1101 14.6996 5.28066C15.8564 6.43742 16.5437 7.97587 16.6389 9.59999H19.9727C19.906 7.89241 19.4029 6.24185 18.5263 4.79999ZM0.00769043 9.59999H3.34143C3.43666 7.97587 4.12397 6.43742 5.28072 5.28066C5.45128 5.1101 5.63014 4.94974 5.81635 4.79999H1.45406C0.57743 6.24185 0.0743637 7.89241 0.00769043 9.59999Z" clip-rule="evenodd"/><path fill="#FFC940" fill-rule="evenodd" d="M19.9726 9.60004H16.6388C16.6464 9.72957 16.6503 9.85965 16.6503 9.99012C16.6503 11.619 16.0535 13.1864 14.9811 14.4H18.9542C19.6229 13.0406 19.9802 11.5338 19.9802 9.99012C19.9802 9.85981 19.9776 9.72976 19.9726 9.60004ZM1.02601 14.4H4.99904C3.92665 13.1864 3.32993 11.619 3.32993 9.99012C3.32993 9.85965 3.33375 9.72957 3.34135 9.60004H0.00761059C0.00254605 9.72976 0 9.85981 0 9.99012C0 11.5338 0.357267 13.0406 1.02601 14.4Z" clip-rule="evenodd"/><path fill="#92D937" fill-rule="evenodd" d="M18.9542 14.4H14.9812C14.8907 14.5024 14.7968 14.6023 14.6995 14.6995C13.4505 15.9485 11.7565 16.6502 9.9901 16.6502C8.22371 16.6502 6.52967 15.9485 5.28065 14.6995C5.18343 14.6023 5.08953 14.5024 4.99902 14.4H1.026C1.50509 15.3739 2.14405 16.2722 2.92603 17.0541C3.85046 17.9786 4.9374 18.7031 6.1197 19.2H13.8605C14.5349 18.9166 15.1782 18.5591 15.7781 18.1327L16.8454 19.2H21.5546L18.1327 15.7781C18.4439 15.3402 18.7184 14.8793 18.9542 14.4Z" clip-rule="evenodd"/></svg>