<svg width="20" height="20" viewBox="0 0 20 20" fill="none" xmlns="http://www.w3.org/2000/svg">
<path fill-rule="evenodd" clip-rule="evenodd" d="M12.5281 3.04701C12.6207 3.08062 12.7057 3.13214 12.7784 3.19863C12.8511 3.26512 12.9099 3.34527 12.9516 3.43451C12.9933 3.52375 13.017 3.62032 13.0214 3.71872C13.0258 3.81713 13.0107 3.91542 12.9771 4.00801L8.43307 16.504C8.39945 16.5966 8.34793 16.6816 8.28144 16.7543C8.21495 16.827 8.1348 16.8858 8.04556 16.9275C7.95632 16.9692 7.85975 16.9929 7.76135 16.9973C7.66295 17.0017 7.56465 16.9866 7.47207 16.953C7.37949 16.9194 7.29443 16.8679 7.22176 16.8014C7.14909 16.7349 7.09023 16.6547 7.04854 16.5655C7.00685 16.4763 6.98314 16.3797 6.97877 16.2813C6.9744 16.1829 6.98945 16.0846 7.02307 15.992L11.5671 3.49601C11.6007 3.40342 11.6522 3.31836 11.7187 3.24569C11.7852 3.17302 11.8653 3.11415 11.9546 3.07246C12.0438 3.03077 12.1404 3.00706 12.2388 3.00269C12.3372 2.99832 12.4355 3.01338 12.5281 3.04701Z" fill="#A5A9B8"/>
</svg>
