<svg width="20" height="20" viewBox="0 0 20 20" fill="none" xmlns="http://www.w3.org/2000/svg">
<path d="M6.24418 15.4166C5.89001 15.4166 5.56084 15.22 5.43168 14.89C5.14563 14.1619 4.99919 13.3864 5.00001 12.6041C5.00001 11.1458 5.49918 9.80579 6.33501 8.74246C6.46084 8.58246 6.64584 8.48496 6.83501 8.41163C7.22918 8.25913 7.57668 7.98329 7.84501 7.64163C8.49191 6.81632 9.30394 6.13513 10.2292 5.64163C10.8317 5.32163 11.3542 4.84496 11.6067 4.21246C11.784 3.76933 11.8751 3.29642 11.875 2.81913V2.29163C11.875 2.12587 11.9409 1.96689 12.0581 1.84968C12.1753 1.73247 12.3342 1.66663 12.5 1.66663C12.9973 1.66663 13.4742 1.86417 13.8258 2.2158C14.1775 2.56743 14.375 3.04435 14.375 3.54163C14.375 4.50163 14.1583 5.41079 13.7725 6.22329C13.5508 6.68829 13.8617 7.29163 14.3767 7.29163H16.9817C17.8367 7.29163 18.6025 7.86996 18.6933 8.72079C18.7308 9.07246 18.75 9.42913 18.75 9.79163C18.7535 12.0719 17.9742 14.2843 16.5425 16.0591C16.2192 16.4608 15.72 16.6666 15.205 16.6666H11.8583C11.4558 16.6666 11.055 16.6016 10.6725 16.475L8.07751 15.6083C7.69509 15.4811 7.29468 15.4164 6.89168 15.4166H6.24418ZM1.94251 8.93913C1.48328 10.1064 1.24833 11.3498 1.25001 12.6041C1.24896 13.5944 1.39499 14.5793 1.68334 15.5266C1.90001 16.235 2.58751 16.6666 3.32834 16.6666H4.08334C4.45418 16.6666 4.68334 16.2516 4.51918 15.9183C4.01096 14.8875 3.74746 13.7534 3.74918 12.6041C3.74918 11.1808 4.14584 9.84996 4.83418 8.71579C5.03834 8.37996 4.81084 7.91663 4.41751 7.91663H3.54168C2.84834 7.91663 2.19751 8.29413 1.94251 8.93913Z" fill="#A5A9B8"/>
</svg>
