<svg width="40" height="40" viewBox="0 0 40 40" fill="none" xmlns="http://www.w3.org/2000/svg">
<path fill-rule="evenodd" clip-rule="evenodd" d="M16.9699 4.99C18.3159 2.656 21.6839 2.656 23.0299 4.99L35.5899 26.74C36.9359 29.074 35.2499 31.99 32.5579 31.99H7.43991C4.74591 31.99 3.06191 29.074 4.40991 26.74L16.9699 4.99ZM19.9999 10C20.3977 10 20.7793 10.158 21.0606 10.4393C21.3419 10.7206 21.4999 11.1022 21.4999 11.5V18.5C21.4999 18.8978 21.3419 19.2794 21.0606 19.5607C20.7793 19.842 20.3977 20 19.9999 20C19.6021 20 19.2206 19.842 18.9392 19.5607C18.6579 19.2794 18.4999 18.8978 18.4999 18.5V11.5C18.4999 11.1022 18.6579 10.7206 18.9392 10.4393C19.2206 10.158 19.6021 10 19.9999 10ZM19.9999 28C20.5303 28 21.0391 27.7893 21.4141 27.4142C21.7892 27.0391 21.9999 26.5304 21.9999 26C21.9999 25.4696 21.7892 24.9609 21.4141 24.5858C21.0391 24.2107 20.5303 24 19.9999 24C19.4695 24 18.9608 24.2107 18.5857 24.5858C18.2106 24.9609 17.9999 25.4696 17.9999 26C17.9999 26.5304 18.2106 27.0391 18.5857 27.4142C18.9608 27.7893 19.4695 28 19.9999 28Z" fill="#E1E4F0"/>
</svg>
